<?xml version="1.0" encoding="UTF-8"?>
<!DOCTYPE svg PUBLIC "-//W3C//DTD SVG 1.1//EN" "http://www.w3.org/Graphics/SVG/1.1/DTD/svg11.dtd">
<!-- Creator: CorelDRAW -->
<svg xmlns="http://www.w3.org/2000/svg" xml:space="preserve" width="73px" height="91px" version="1.1" style="shape-rendering:geometricPrecision; text-rendering:geometricPrecision; image-rendering:optimizeQuality; fill-rule:evenodd; clip-rule:evenodd"
viewBox="0 0 73 90.89"
 xmlns:xlink="http://www.w3.org/1999/xlink"
 xmlns:xodm="http://www.corel.com/coreldraw/odm/2003">
 <defs>
  <style type="text/css">
   <![CDATA[
    .fil0 {fill:black;fill-rule:nonzero}
   ]]>
  </style>
 </defs>
 <g id="Layer_x0020_1">
  <metadata id="CorelCorpID_0Corel-Layer"/>
  <path class="fil0" d="M72.75 28.21l-11.99 -18.49c-0.23,-0.35 -0.59,-0.6 -0.99,-0.68l-42.33 -9c-0.41,-0.09 -0.83,-0.01 -1.18,0.21 -0.35,0.23 -0.59,0.59 -0.68,0.99l-2.47 11.67 -11.54 0c-0.87,0 -1.57,0.71 -1.57,1.57l0 74.85c0,0.86 0.7,1.56 1.57,1.56l58.83 0c0.87,0 1.57,-0.7 1.57,-1.56l0 -8.16 10.99 -51.77c0.09,-0.41 0.01,-0.84 -0.21,-1.19zm-69.61 59.54l0 -71.7 40.11 0 0 14.03c0,0.87 0.71,1.57 1.57,1.57l14.02 0 0 56.11 -55.7 0 0 -0.01zm53.47 -59.23l-10.22 0 0 -10.25 10.22 10.25zm5.36 37.55l0 -35.97c0,-0.22 -0.04,-0.42 -0.13,-0.61 -0.08,-0.21 -0.2,-0.38 -0.36,-0.53l-15.53 -15.57c-0.29,-0.3 -0.68,-0.49 -1.13,-0.49 -0.01,0 -0.02,0.01 -0.03,0.01l-28.48 0 2.01 -9.49 40.16 8.54 11.29 17.41 -7.8 36.7z"/>
 </g>
</svg>
