<?xml version="1.0" encoding="UTF-8"?>
<!DOCTYPE svg PUBLIC "-//W3C//DTD SVG 1.1//EN" "http://www.w3.org/Graphics/SVG/1.1/DTD/svg11.dtd">
<!-- Creator: CorelDRAW -->
<svg xmlns="http://www.w3.org/2000/svg" xml:space="preserve" width="5262px" height="1243px" version="1.1" style="shape-rendering:geometricPrecision; text-rendering:geometricPrecision; image-rendering:optimizeQuality; fill-rule:evenodd; clip-rule:evenodd"
viewBox="0 0 9399.5 2220.4"
 xmlns:xlink="http://www.w3.org/1999/xlink"
 xmlns:xodm="http://www.corel.com/coreldraw/odm/2003">
 <defs>
  <style type="text/css">
   <![CDATA[
    .fil0 {fill:#1B1C1C;fill-rule:nonzero}
    .fil1 {fill:white;fill-rule:nonzero}
   ]]>
  </style>
 </defs>
 <g id="Layer_x0020_1">
  <metadata id="CorelCorpID_0Corel-Layer"/>
  <g id="_2212793319408">
   <path class="fil0" d="M1754.83 256.3l60.56 47.07 -0.03 0.04c34.8,27.09 69.62,54.17 104.44,81.24l-96.28 123.87 -104.48 -81.29 -28.41 36.52c11.51,10.49 22.77,21.24 33.78,32.24 182.79,182.81 295.86,435.34 295.86,714.27 0,278.93 -113.07,531.47 -295.86,714.27 -182.81,182.8 -435.35,295.87 -714.27,295.87 -278.93,0 -531.47,-113.07 -714.27,-295.87 -182.8,-182.8 -295.87,-435.34 -295.87,-714.27 0,-278.93 113.07,-531.46 295.87,-714.27 165.49,-165.48 388.13,-273.82 635.77,-292.86l0 -46.13 -53.82 0 -78.5 0 0 -157 132.32 0 0 0 157 0 0 0 132.31 0 0 157 -132.31 0 0 46.13c175.86,13.53 339.12,72.09 478.26,164.17l28.33 -36.41 -42.48 -33.06 -61.94 -48.14 96.29 -123.88c55.93,43.47 111.83,86.98 167.73,130.49zm-1417.89 1048.79l0 -157 183.3 0 118.36 -230.02 139.58 0 168.61 528.1 211.84 -772.32 148.64 0 153.16 474.24 222.9 0 0 157 -336.58 0 -107.85 -333.69 -211.28 771.62 -150.25 3.07 -186.46 -587.36 -75.95 146.36 -278.02 0z"/>
   <g>
    <polygon class="fil0" points="9399.5,1315.38 8977.32,1859.37 8977.32,2136.1 8781.01,2136.1 8781.01,1859.37 8358.83,1315.38 8605.99,1315.38 8877.98,1697.36 9152.34,1315.38 "/>
    <polygon class="fil0" points="7448.24,1315.38 8333.99,1315.38 8333.99,1478.58 7987.5,1478.58 7987.5,2136.1 7791.19,2136.1 7791.19,1478.58 7448.24,1478.58 "/>
    <polygon class="fil0" points="7318.15,2136.1 7121.84,2136.1 7121.84,1315.38 7318.15,1315.38 "/>
    <polygon class="fil0" points="5864.75,1315.38 6091.81,1315.38 6432.39,1972.9 6456.05,1972.9 6801.36,1315.38 7026.05,1315.38 6586.13,2136.1 6302.31,2136.1 "/>
    <polygon class="fil0" points="5767.78,2136.1 5571.47,2136.1 5571.47,1315.38 5767.78,1315.38 "/>
    <polygon class="fil0" points="4563.91,1315.38 5449.66,1315.38 5449.66,1478.58 5103.17,1478.58 5103.17,2136.1 4906.86,2136.1 4906.86,1478.58 4563.91,1478.58 "/>
    <path class="fil0" d="M4168.93 2134.91l-365.42 0c-76.48,0 -136.2,-8.86 -179.16,-26.6 -42.97,-17.74 -73.72,-47.5 -92.25,-89.29 -18.52,-41.78 -27.79,-99.73 -27.79,-173.84l0 -232.97c0.79,-80.41 10.84,-141.91 30.16,-184.48 19.31,-42.57 51.44,-72.34 96.38,-89.29 44.94,-16.95 108.8,-25.42 191.58,-25.42l322.84 0c70.17,0 128.31,7.88 174.43,23.65 46.13,15.77 81.8,44.15 107.03,85.15 25.23,40.99 37.84,98.54 37.84,172.65l-203.4 0c0,-43.36 -11.44,-73.91 -34.3,-91.65 -22.86,-17.74 -61.1,-26.6 -114.71,-26.6l-251.89 0c-46.52,0 -80.61,3.15 -102.29,9.46 -21.68,6.3 -36.66,19.31 -44.94,39.02 -8.28,19.71 -12.42,51.25 -12.42,94.61l0 203.4c0,41 5.32,72.34 15.97,94.02 10.64,21.68 27,36.26 49.07,43.75 22.08,7.49 53.22,11.24 93.43,11.24l251.89 0c39.42,0 69.57,-3.16 90.47,-9.46 20.89,-6.31 36.26,-17.94 46.12,-34.89 9.85,-16.95 14.78,-42.37 14.78,-76.27l203.4 0c0,74.89 -8.08,132.45 -24.24,172.65 -16.16,40.21 -45.33,68.79 -87.51,85.74 -42.18,16.95 -103.87,25.42 -185.07,25.42z"/>
    <path class="fil0" d="M2748.99 1774.23l327.57 0 -156.1 -305.11 -9.46 0 -162.01 305.11zm-185.67 361.87l-229.42 0 435.19 -820.72 290.92 0 431.64 820.72 -230.6 0 -105.25 -206.95 -486.05 0 -106.43 206.95z"/>
    <g>
     <path class="fil0" d="M9399.5 843.09c0,52.83 -4.73,96.78 -14.19,131.86 -9.46,35.09 -25.42,63.47 -47.89,85.15 -22.47,21.68 -52.82,37.65 -91.06,47.89 -38.24,10.25 -86.13,15.38 -143.68,15.38l-360.69 0c-55.19,0 -101.9,-5.32 -140.14,-15.97 -38.24,-10.64 -69.38,-27.2 -93.42,-49.67 -24.05,-22.47 -41.59,-51.24 -52.63,-86.33 -11.04,-35.08 -16.56,-77.85 -16.56,-128.31l0 -249.52c0,-56.77 5.33,-103.67 15.97,-140.73 10.64,-37.05 27.79,-66.62 51.44,-88.69 23.65,-22.08 54.4,-37.85 92.24,-47.31 37.85,-9.46 85.54,-14.19 143.1,-14.19l360.69 0c70.95,0 127.71,8.48 170.29,25.43 42.57,16.95 74.3,46.51 95.2,88.69 20.89,42.18 31.33,101.11 31.33,176.8l0 249.52zm-763.95 -20.1c0,36.27 4.54,64.25 13.6,83.96 9.07,19.71 24.44,33.51 46.12,41.39 21.68,7.89 53.02,11.83 94.02,11.83l260.17 0c42.57,0 74.7,-3.74 96.38,-11.23 21.68,-7.49 36.66,-21.09 44.94,-40.8 8.28,-19.71 12.41,-48.49 12.41,-86.33l0 -209.32c0,-40.21 -4.92,-70.76 -14.78,-91.65 -9.85,-20.89 -25.82,-35.28 -47.89,-43.16 -22.08,-7.89 -53.61,-11.83 -94.61,-11.83l-253.07 0c-41.79,0 -73.72,4.14 -95.79,12.42 -22.08,8.28 -37.65,22.86 -46.71,43.75 -9.07,20.89 -14,51.44 -14.79,91.65l0 209.32z"/>
     <polygon class="fil0" points="7469.52,302.65 8355.28,302.65 8355.28,465.85 8008.78,465.85 8008.78,1123.37 7812.47,1123.37 7812.47,465.85 7469.52,465.85 "/>
    </g>
    <g>
     <polygon class="fil0" points="5426.36,1123.37 5426.36,302.65 5756.3,302.65 6256.54,960.17 6283.74,960.17 6283.74,302.65 6480.05,302.65 6480.05,1123.37 6143.01,1123.37 5649.87,465.85 5622.67,465.85 5622.67,1123.37 "/>
     <path class="fil0" d="M5297.46 1123.37l-197.49 0 0 -127.72c0,-41 -12.03,-70.56 -36.07,-88.7 -24.05,-18.13 -64.06,-27.2 -120.03,-27.2l-379.61 0 0 243.62 -197.49 0 0 -820.72 623.22 0c45.72,0 85.93,4.34 120.62,13.01 34.69,8.67 64.85,23.65 90.47,44.94 25.62,21.29 45.53,50.85 59.72,88.69 14.19,37.85 21.29,85.15 21.29,141.91 0,56.77 -10.65,101.12 -31.93,133.05 -21.29,31.93 -50.46,58.93 -87.52,81 35.48,13.4 60.71,24.05 75.69,31.93 14.98,7.88 28.58,21.09 40.8,39.62 12.22,18.53 18.33,43.95 18.33,76.28l0 170.29zm-734.39 -657.52l0 250.71 410.36 0c41,0 69.77,-9.66 86.33,-28.97 16.56,-19.32 25.23,-51.45 26.02,-96.39 0,-44.93 -8.08,-77.06 -24.25,-96.38 -16.16,-19.31 -45.53,-28.97 -88.1,-28.97l-410.36 0z"/>
     <path class="fil0" d="M3292.98 302.65l196.31 0 0 509.7c0,55.18 11.62,93.62 34.88,115.3 23.26,21.68 62.09,32.52 116.49,32.52l270.81 0c33.11,0 60.11,-4.73 81,-14.19 20.9,-9.46 36.47,-25.23 46.72,-47.3 10.25,-22.08 15.37,-51.25 15.37,-87.52l0 -508.51 196.31 0 0 528.62c0,55.19 -5.32,101.11 -15.96,137.77 -10.65,36.66 -27.6,66.42 -50.86,89.29 -23.25,22.86 -53.41,39.42 -90.46,49.66 -37.06,10.25 -82.39,15.38 -136,15.38l-360.69 0c-103.28,0 -179.75,-23.85 -229.42,-71.55 -49.67,-47.7 -74.5,-121.21 -74.5,-220.55l0 -528.62z"/>
     <polygon class="fil0" points="2333.9,302.65 3219.65,302.65 3219.65,465.85 2873.16,465.85 2873.16,1123.37 2676.85,1123.37 2676.85,465.85 2333.9,465.85 "/>
    </g>
   </g>
   <polygon class="fil1" points="336.94,1305.09 336.94,1148.09 520.24,1148.09 638.6,918.07 778.18,918.07 946.79,1446.17 1158.63,673.85 1307.28,673.85 1460.43,1148.09 1683.33,1148.09 1683.33,1305.09 1346.75,1305.09 1238.9,971.4 1027.62,1743.02 877.37,1746.09 690.91,1158.73 614.96,1305.09 "/>
  </g>
 </g>
</svg>
